<?xml version="1.0" standalone="no"?>
<!DOCTYPE svg PUBLIC "-//W3C//DTD SVG 20010904//EN"
 "http://www.w3.org/TR/2001/REC-SVG-20010904/DTD/svg10.dtd">
<svg version="1.0" xmlns="http://www.w3.org/2000/svg"
 width="207.000000pt" height="100.000000pt" viewBox="0 0 207.000000 100.000000"
 preserveAspectRatio="xMidYMid meet">
<metadata>
Created by potrace 1.13, written by Peter Selinger 2001-2015
</metadata>
<g transform="translate(0.000000,100.000000) scale(0.100000,-0.100000)"
fill="#000000" stroke="none">
<path d="M0 963 c1 -21 7 -67 15 -103 11 -55 20 -70 52 -98 36 -32 37 -33 11
-27 -37 9 -36 -5 2 -71 34 -60 102 -122 182 -164 33 -18 65 -44 77 -64 87
-140 309 -245 584 -275 168 -19 484 -11 470 12 -4 6 3 8 18 4 13 -4 31 -7 39
-8 8 0 -14 -7 -48 -14 -85 -19 -240 -35 -277 -29 -26 3 -23 1 15 -18 60 -28
167 -35 242 -15 32 8 60 12 63 7 8 -13 -34 -59 -73 -81 l-37 -20 48 4 c27 3
82 21 132 45 47 23 85 38 85 35 0 -3 -17 -21 -37 -40 l-38 -33 40 16 c71 28
109 41 150 49 l40 8 -45 12 c-76 22 -39 16 144 -20 97 -19 185 -35 196 -35 58
0 -16 54 -89 65 -177 25 -577 115 -560 126 15 9 -125 155 -210 220 -37 27 -92
63 -124 80 l-58 31 7 -51 c4 -28 4 -51 1 -51 -3 0 -15 20 -26 44 -23 54 -14
49 -334 183 -253 105 -506 224 -604 283 l-53 32 0 -39z"/>
<path d="M1350 351 c0 -6 5 -13 10 -16 6 -4 24 -30 40 -59 l30 -53 116 -26
c65 -15 119 -26 121 -24 8 8 -27 75 -54 101 -27 28 -103 69 -112 61 -2 -2 11
-21 29 -42 46 -52 21 -55 -49 -6 -53 38 -114 73 -126 73 -3 0 -5 -4 -5 -9z"/>
</g>
</svg>
