<?xml version="1.0" standalone="no"?>
<!DOCTYPE svg PUBLIC "-//W3C//DTD SVG 20010904//EN"
 "http://www.w3.org/TR/2001/REC-SVG-20010904/DTD/svg10.dtd">
<svg version="1.0" xmlns="http://www.w3.org/2000/svg"
 width="172.000000pt" height="150.000000pt" viewBox="0 0 172.000000 150.000000"
 preserveAspectRatio="xMidYMid meet">
<metadata>
Created by potrace 1.13, written by Peter Selinger 2001-2015
</metadata>
<g transform="translate(0.000000,150.000000) scale(0.100000,-0.100000)"
fill="#000000" stroke="none">
<path d="M199 1389 c51 -50 91 -92 89 -94 -4 -5 -135 61 -155 77 -7 6 -13 6
-13 1 0 -5 29 -26 65 -47 36 -21 65 -42 65 -47 0 -12 0 -13 -83 20 -41 15 -87
31 -103 35 l-29 7 30 -20 c16 -11 42 -23 57 -26 31 -7 42 -20 33 -35 -4 -7
-13 -6 -26 1 -11 5 -25 8 -32 6 -7 -2 6 -13 28 -24 22 -10 39 -24 38 -30 -1
-6 18 -23 43 -38 36 -21 43 -29 34 -40 -9 -11 -4 -19 23 -36 18 -13 41 -40 51
-61 9 -21 23 -41 31 -44 8 -4 15 -12 15 -18 0 -20 80 -67 102 -60 16 5 19 2
14 -13 -4 -13 2 -22 24 -31 17 -8 30 -20 30 -28 0 -8 6 -17 14 -20 8 -3 16
-18 20 -35 3 -16 12 -29 19 -29 8 0 33 -20 56 -45 23 -25 47 -45 54 -45 7 0
19 -16 26 -35 7 -19 19 -35 27 -35 8 0 14 -7 14 -16 0 -14 3 -14 16 -3 13 10
17 10 25 -2 5 -8 9 -18 9 -22 0 -5 5 -5 10 -2 6 3 13 -1 16 -9 9 -23 37 -19
64 9 21 23 41 23 69 -1 11 -9 -169 -204 -189 -204 -19 0 -370 -142 -376 -152
-14 -22 15 -31 48 -15 43 21 58 9 24 -20 -31 -26 -27 -28 21 -11 28 10 36 10
43 -1 9 -15 13 -13 124 40 48 22 57 17 28 -14 -26 -27 -28 -37 -7 -37 10 0 15
-10 15 -30 0 -35 10 -38 35 -10 22 25 35 17 35 -21 0 -37 9 -37 45 1 34 36 55
38 55 7 0 -27 29 -68 36 -51 3 6 11 20 19 30 13 18 15 17 30 -21 l17 -40 19
24 c19 23 20 23 39 6 13 -12 24 -15 30 -9 5 5 11 68 12 139 l3 130 72 6 c50 5
86 15 123 35 63 34 146 122 200 212 22 37 66 99 98 137 55 66 61 70 108 75 45
5 47 6 27 18 -12 6 -30 12 -40 12 -11 0 -32 14 -48 30 -18 19 -43 33 -67 37
-44 6 -58 21 -37 37 26 20 65 80 82 126 16 46 23 120 18 200 -3 45 -3 45 -13
15 -6 -16 -18 -39 -28 -50 -10 -11 -21 -31 -25 -45 -4 -14 -16 -31 -27 -38
-10 -7 -25 -29 -33 -48 -8 -19 -21 -34 -29 -34 -8 0 -18 -9 -21 -20 -3 -11
-11 -20 -16 -20 -5 0 -9 -5 -9 -11 0 -6 -21 -32 -47 -58 -27 -26 -70 -73 -98
-105 l-50 -58 -28 22 c-15 12 -63 65 -106 118 -81 100 -106 118 -201 147 -30
9 -62 19 -70 22 -8 3 -17 7 -20 8 -3 1 -13 5 -22 8 -10 4 -26 10 -35 14 -10 3
-20 7 -23 8 -74 26 -248 110 -325 158 -53 33 -139 104 -217 181 -26 25 -51 46
-55 46 -5 -1 34 -41 86 -91z"/>
</g>
</svg>
